<mxfile host="app.diagrams.net" agent="Mozilla/5.0 (Windows NT 10.0; Win64; x64) AppleWebKit/537.36 (KHTML, like Gecko) Chrome/128.0.0.0 Safari/537.36" version="26.0.14">
  <diagram name="Page-1" id="fEF_l4iNhEz73wchvGP7">
    <mxGraphModel dx="1167" dy="619" grid="1" gridSize="10" guides="1" tooltips="1" connect="1" arrows="1" fold="1" page="1" pageScale="1" pageWidth="850" pageHeight="1100" math="0" shadow="0">
      <root>
        <mxCell id="0" />
        <mxCell id="1" parent="0" />
        <mxCell id="JQyI5u36Vae-DA6VwTWV-35" style="edgeStyle=orthogonalEdgeStyle;shape=connector;rounded=0;orthogonalLoop=1;jettySize=auto;html=1;entryX=0;entryY=0.5;entryDx=0;entryDy=0;strokeColor=default;align=center;verticalAlign=middle;fontFamily=Helvetica;fontSize=11;fontColor=default;labelBackgroundColor=default;startFill=0;endArrow=none;" edge="1" parent="1" source="JQyI5u36Vae-DA6VwTWV-16" target="JQyI5u36Vae-DA6VwTWV-17">
          <mxGeometry relative="1" as="geometry" />
        </mxCell>
        <mxCell id="JQyI5u36Vae-DA6VwTWV-16" value="DEPARTMENTS" style="whiteSpace=wrap;html=1;align=center;" vertex="1" parent="1">
          <mxGeometry x="40" y="170" width="100" height="40" as="geometry" />
        </mxCell>
        <mxCell id="JQyI5u36Vae-DA6VwTWV-36" style="edgeStyle=orthogonalEdgeStyle;shape=connector;rounded=0;orthogonalLoop=1;jettySize=auto;html=1;strokeColor=default;align=center;verticalAlign=middle;fontFamily=Helvetica;fontSize=11;fontColor=default;labelBackgroundColor=default;startFill=0;endArrow=ERmany;endFill=0;" edge="1" parent="1" source="JQyI5u36Vae-DA6VwTWV-17" target="JQyI5u36Vae-DA6VwTWV-18">
          <mxGeometry relative="1" as="geometry" />
        </mxCell>
        <mxCell id="JQyI5u36Vae-DA6VwTWV-17" value="HAVE" style="shape=rhombus;perimeter=rhombusPerimeter;whiteSpace=wrap;html=1;align=center;" vertex="1" parent="1">
          <mxGeometry x="190" y="160" width="120" height="60" as="geometry" />
        </mxCell>
        <mxCell id="JQyI5u36Vae-DA6VwTWV-65" style="edgeStyle=orthogonalEdgeStyle;shape=connector;rounded=0;orthogonalLoop=1;jettySize=auto;html=1;entryX=0;entryY=0.5;entryDx=0;entryDy=0;strokeColor=default;align=center;verticalAlign=middle;fontFamily=Helvetica;fontSize=11;fontColor=default;labelBackgroundColor=default;startFill=0;endArrow=none;" edge="1" parent="1" source="JQyI5u36Vae-DA6VwTWV-18" target="JQyI5u36Vae-DA6VwTWV-19">
          <mxGeometry relative="1" as="geometry" />
        </mxCell>
        <mxCell id="JQyI5u36Vae-DA6VwTWV-18" value="EMPLOYEES" style="whiteSpace=wrap;html=1;align=center;" vertex="1" parent="1">
          <mxGeometry x="360" y="170" width="100" height="40" as="geometry" />
        </mxCell>
        <mxCell id="JQyI5u36Vae-DA6VwTWV-66" style="edgeStyle=orthogonalEdgeStyle;shape=connector;rounded=0;orthogonalLoop=1;jettySize=auto;html=1;entryX=0;entryY=0.5;entryDx=0;entryDy=0;strokeColor=default;align=center;verticalAlign=middle;fontFamily=Helvetica;fontSize=11;fontColor=default;labelBackgroundColor=default;startFill=0;endArrow=none;" edge="1" parent="1" source="JQyI5u36Vae-DA6VwTWV-19" target="JQyI5u36Vae-DA6VwTWV-20">
          <mxGeometry relative="1" as="geometry" />
        </mxCell>
        <mxCell id="JQyI5u36Vae-DA6VwTWV-19" value="Relationship" style="shape=rhombus;perimeter=rhombusPerimeter;whiteSpace=wrap;html=1;align=center;" vertex="1" parent="1">
          <mxGeometry x="510" y="160" width="120" height="60" as="geometry" />
        </mxCell>
        <mxCell id="JQyI5u36Vae-DA6VwTWV-67" style="edgeStyle=orthogonalEdgeStyle;shape=connector;rounded=0;orthogonalLoop=1;jettySize=auto;html=1;entryX=0.5;entryY=0;entryDx=0;entryDy=0;strokeColor=default;align=center;verticalAlign=middle;fontFamily=Helvetica;fontSize=11;fontColor=default;labelBackgroundColor=default;startFill=0;endArrow=none;" edge="1" parent="1" source="JQyI5u36Vae-DA6VwTWV-20" target="JQyI5u36Vae-DA6VwTWV-27">
          <mxGeometry relative="1" as="geometry" />
        </mxCell>
        <mxCell id="JQyI5u36Vae-DA6VwTWV-20" value="JOBS" style="whiteSpace=wrap;html=1;align=center;" vertex="1" parent="1">
          <mxGeometry x="680" y="170" width="100" height="40" as="geometry" />
        </mxCell>
        <mxCell id="JQyI5u36Vae-DA6VwTWV-57" style="edgeStyle=orthogonalEdgeStyle;shape=connector;rounded=0;orthogonalLoop=1;jettySize=auto;html=1;strokeColor=default;align=center;verticalAlign=middle;fontFamily=Helvetica;fontSize=11;fontColor=default;labelBackgroundColor=default;startFill=0;endArrow=none;" edge="1" parent="1" source="JQyI5u36Vae-DA6VwTWV-21" target="JQyI5u36Vae-DA6VwTWV-16">
          <mxGeometry relative="1" as="geometry" />
        </mxCell>
        <mxCell id="JQyI5u36Vae-DA6VwTWV-21" value="Relationship" style="shape=rhombus;perimeter=rhombusPerimeter;whiteSpace=wrap;html=1;align=center;" vertex="1" parent="1">
          <mxGeometry x="30" y="230" width="120" height="60" as="geometry" />
        </mxCell>
        <mxCell id="JQyI5u36Vae-DA6VwTWV-58" style="edgeStyle=orthogonalEdgeStyle;shape=connector;rounded=0;orthogonalLoop=1;jettySize=auto;html=1;strokeColor=default;align=center;verticalAlign=middle;fontFamily=Helvetica;fontSize=11;fontColor=default;labelBackgroundColor=default;startFill=0;endArrow=none;" edge="1" parent="1" source="JQyI5u36Vae-DA6VwTWV-22" target="JQyI5u36Vae-DA6VwTWV-21">
          <mxGeometry relative="1" as="geometry" />
        </mxCell>
        <mxCell id="JQyI5u36Vae-DA6VwTWV-22" value="LOCATIONS" style="whiteSpace=wrap;html=1;align=center;" vertex="1" parent="1">
          <mxGeometry x="40" y="310" width="100" height="40" as="geometry" />
        </mxCell>
        <mxCell id="JQyI5u36Vae-DA6VwTWV-59" style="edgeStyle=orthogonalEdgeStyle;shape=connector;rounded=0;orthogonalLoop=1;jettySize=auto;html=1;entryX=0.5;entryY=1;entryDx=0;entryDy=0;strokeColor=default;align=center;verticalAlign=middle;fontFamily=Helvetica;fontSize=11;fontColor=default;labelBackgroundColor=default;startFill=0;endArrow=none;" edge="1" parent="1" source="JQyI5u36Vae-DA6VwTWV-23" target="JQyI5u36Vae-DA6VwTWV-22">
          <mxGeometry relative="1" as="geometry" />
        </mxCell>
        <mxCell id="JQyI5u36Vae-DA6VwTWV-63" style="edgeStyle=orthogonalEdgeStyle;shape=connector;rounded=0;orthogonalLoop=1;jettySize=auto;html=1;entryX=0.5;entryY=0;entryDx=0;entryDy=0;strokeColor=default;align=center;verticalAlign=middle;fontFamily=Helvetica;fontSize=11;fontColor=default;labelBackgroundColor=default;startFill=0;endArrow=none;" edge="1" parent="1" source="JQyI5u36Vae-DA6VwTWV-23" target="JQyI5u36Vae-DA6VwTWV-24">
          <mxGeometry relative="1" as="geometry" />
        </mxCell>
        <mxCell id="JQyI5u36Vae-DA6VwTWV-23" value="Relationship" style="shape=rhombus;perimeter=rhombusPerimeter;whiteSpace=wrap;html=1;align=center;" vertex="1" parent="1">
          <mxGeometry x="30" y="370" width="120" height="60" as="geometry" />
        </mxCell>
        <mxCell id="JQyI5u36Vae-DA6VwTWV-24" value="COUNTRIES" style="whiteSpace=wrap;html=1;align=center;" vertex="1" parent="1">
          <mxGeometry x="40" y="450" width="100" height="40" as="geometry" />
        </mxCell>
        <mxCell id="JQyI5u36Vae-DA6VwTWV-62" style="edgeStyle=orthogonalEdgeStyle;shape=connector;rounded=0;orthogonalLoop=1;jettySize=auto;html=1;strokeColor=default;align=center;verticalAlign=middle;fontFamily=Helvetica;fontSize=11;fontColor=default;labelBackgroundColor=default;startFill=0;endArrow=none;" edge="1" parent="1" source="JQyI5u36Vae-DA6VwTWV-25" target="JQyI5u36Vae-DA6VwTWV-24">
          <mxGeometry relative="1" as="geometry" />
        </mxCell>
        <mxCell id="JQyI5u36Vae-DA6VwTWV-25" value="Relationship" style="shape=rhombus;perimeter=rhombusPerimeter;whiteSpace=wrap;html=1;align=center;" vertex="1" parent="1">
          <mxGeometry x="30" y="510" width="120" height="60" as="geometry" />
        </mxCell>
        <mxCell id="JQyI5u36Vae-DA6VwTWV-64" style="edgeStyle=orthogonalEdgeStyle;shape=connector;rounded=0;orthogonalLoop=1;jettySize=auto;html=1;entryX=0.5;entryY=1;entryDx=0;entryDy=0;strokeColor=default;align=center;verticalAlign=middle;fontFamily=Helvetica;fontSize=11;fontColor=default;labelBackgroundColor=default;startFill=0;endArrow=none;" edge="1" parent="1" source="JQyI5u36Vae-DA6VwTWV-26" target="JQyI5u36Vae-DA6VwTWV-25">
          <mxGeometry relative="1" as="geometry" />
        </mxCell>
        <mxCell id="JQyI5u36Vae-DA6VwTWV-26" value="REGIONS" style="whiteSpace=wrap;html=1;align=center;" vertex="1" parent="1">
          <mxGeometry x="40" y="590" width="100" height="40" as="geometry" />
        </mxCell>
        <mxCell id="JQyI5u36Vae-DA6VwTWV-68" style="edgeStyle=orthogonalEdgeStyle;shape=connector;rounded=0;orthogonalLoop=1;jettySize=auto;html=1;entryX=0.5;entryY=0;entryDx=0;entryDy=0;strokeColor=default;align=center;verticalAlign=middle;fontFamily=Helvetica;fontSize=11;fontColor=default;labelBackgroundColor=default;startFill=0;endArrow=none;" edge="1" parent="1" source="JQyI5u36Vae-DA6VwTWV-27" target="JQyI5u36Vae-DA6VwTWV-28">
          <mxGeometry relative="1" as="geometry" />
        </mxCell>
        <mxCell id="JQyI5u36Vae-DA6VwTWV-27" value="Relationship" style="shape=rhombus;perimeter=rhombusPerimeter;whiteSpace=wrap;html=1;align=center;" vertex="1" parent="1">
          <mxGeometry x="670" y="230" width="120" height="60" as="geometry" />
        </mxCell>
        <mxCell id="JQyI5u36Vae-DA6VwTWV-28" value="JOBS_HISTORY" style="whiteSpace=wrap;html=1;align=center;" vertex="1" parent="1">
          <mxGeometry x="680" y="310" width="100" height="40" as="geometry" />
        </mxCell>
        <mxCell id="JQyI5u36Vae-DA6VwTWV-30" style="edgeStyle=orthogonalEdgeStyle;rounded=0;orthogonalLoop=1;jettySize=auto;html=1;endArrow=none;startFill=0;" edge="1" parent="1" source="JQyI5u36Vae-DA6VwTWV-29" target="JQyI5u36Vae-DA6VwTWV-16">
          <mxGeometry relative="1" as="geometry">
            <Array as="points">
              <mxPoint x="60" y="110" />
              <mxPoint x="90" y="110" />
            </Array>
          </mxGeometry>
        </mxCell>
        <mxCell id="JQyI5u36Vae-DA6VwTWV-29" value="dep id" style="ellipse;whiteSpace=wrap;html=1;align=center;" vertex="1" parent="1">
          <mxGeometry x="10" y="10" width="100" height="40" as="geometry" />
        </mxCell>
        <mxCell id="JQyI5u36Vae-DA6VwTWV-32" style="edgeStyle=orthogonalEdgeStyle;rounded=0;orthogonalLoop=1;jettySize=auto;html=1;entryX=0.5;entryY=0;entryDx=0;entryDy=0;endArrow=none;startFill=0;" edge="1" parent="1" source="JQyI5u36Vae-DA6VwTWV-31" target="JQyI5u36Vae-DA6VwTWV-16">
          <mxGeometry relative="1" as="geometry">
            <Array as="points">
              <mxPoint x="170" y="120" />
              <mxPoint x="110" y="120" />
              <mxPoint x="110" y="170" />
            </Array>
          </mxGeometry>
        </mxCell>
        <mxCell id="JQyI5u36Vae-DA6VwTWV-31" value="name" style="ellipse;whiteSpace=wrap;html=1;align=center;" vertex="1" parent="1">
          <mxGeometry x="120" y="30" width="100" height="40" as="geometry" />
        </mxCell>
        <mxCell id="JQyI5u36Vae-DA6VwTWV-39" style="edgeStyle=orthogonalEdgeStyle;shape=connector;rounded=0;orthogonalLoop=1;jettySize=auto;html=1;entryX=0.5;entryY=0;entryDx=0;entryDy=0;strokeColor=default;align=center;verticalAlign=middle;fontFamily=Helvetica;fontSize=11;fontColor=default;labelBackgroundColor=default;startFill=0;endArrow=none;" edge="1" parent="1" source="JQyI5u36Vae-DA6VwTWV-38" target="JQyI5u36Vae-DA6VwTWV-18">
          <mxGeometry relative="1" as="geometry">
            <Array as="points">
              <mxPoint x="310" y="140" />
              <mxPoint x="380" y="140" />
              <mxPoint x="380" y="170" />
            </Array>
          </mxGeometry>
        </mxCell>
        <mxCell id="JQyI5u36Vae-DA6VwTWV-38" value="Attribute" style="ellipse;whiteSpace=wrap;html=1;align=center;fontFamily=Helvetica;fontSize=11;fontColor=default;labelBackgroundColor=default;" vertex="1" parent="1">
          <mxGeometry x="260" y="70" width="100" height="40" as="geometry" />
        </mxCell>
        <mxCell id="JQyI5u36Vae-DA6VwTWV-42" style="edgeStyle=orthogonalEdgeStyle;shape=connector;rounded=0;orthogonalLoop=1;jettySize=auto;html=1;entryX=0.5;entryY=0;entryDx=0;entryDy=0;strokeColor=default;align=center;verticalAlign=middle;fontFamily=Helvetica;fontSize=11;fontColor=default;labelBackgroundColor=default;startFill=0;endArrow=none;" edge="1" parent="1" source="JQyI5u36Vae-DA6VwTWV-41" target="JQyI5u36Vae-DA6VwTWV-18">
          <mxGeometry relative="1" as="geometry" />
        </mxCell>
        <mxCell id="JQyI5u36Vae-DA6VwTWV-41" value="Attribute" style="ellipse;whiteSpace=wrap;html=1;align=center;fontFamily=Helvetica;fontSize=11;fontColor=default;labelBackgroundColor=default;" vertex="1" parent="1">
          <mxGeometry x="360" y="30" width="100" height="40" as="geometry" />
        </mxCell>
        <mxCell id="JQyI5u36Vae-DA6VwTWV-44" style="edgeStyle=orthogonalEdgeStyle;shape=connector;rounded=0;orthogonalLoop=1;jettySize=auto;html=1;entryX=0.75;entryY=0;entryDx=0;entryDy=0;strokeColor=default;align=center;verticalAlign=middle;fontFamily=Helvetica;fontSize=11;fontColor=default;labelBackgroundColor=default;startFill=0;endArrow=none;" edge="1" parent="1" source="JQyI5u36Vae-DA6VwTWV-43" target="JQyI5u36Vae-DA6VwTWV-18">
          <mxGeometry relative="1" as="geometry" />
        </mxCell>
        <mxCell id="JQyI5u36Vae-DA6VwTWV-43" value="Attribute" style="ellipse;whiteSpace=wrap;html=1;align=center;fontFamily=Helvetica;fontSize=11;fontColor=default;labelBackgroundColor=default;" vertex="1" parent="1">
          <mxGeometry x="450" y="80" width="100" height="40" as="geometry" />
        </mxCell>
        <mxCell id="JQyI5u36Vae-DA6VwTWV-51" style="edgeStyle=orthogonalEdgeStyle;shape=connector;rounded=0;orthogonalLoop=1;jettySize=auto;html=1;entryX=1;entryY=0.25;entryDx=0;entryDy=0;strokeColor=default;align=center;verticalAlign=middle;fontFamily=Helvetica;fontSize=11;fontColor=default;labelBackgroundColor=default;startFill=0;endArrow=none;" edge="1" parent="1" source="JQyI5u36Vae-DA6VwTWV-45" target="JQyI5u36Vae-DA6VwTWV-22">
          <mxGeometry relative="1" as="geometry" />
        </mxCell>
        <mxCell id="JQyI5u36Vae-DA6VwTWV-45" value="street name" style="ellipse;whiteSpace=wrap;html=1;align=center;fontFamily=Helvetica;fontSize=11;fontColor=default;labelBackgroundColor=default;movable=1;resizable=1;rotatable=1;deletable=1;editable=1;locked=0;connectable=1;fontStyle=4" vertex="1" parent="1">
          <mxGeometry x="180" y="260" width="100" height="40" as="geometry" />
        </mxCell>
        <mxCell id="JQyI5u36Vae-DA6VwTWV-50" style="edgeStyle=orthogonalEdgeStyle;shape=connector;rounded=0;orthogonalLoop=1;jettySize=auto;html=1;entryX=1;entryY=0.5;entryDx=0;entryDy=0;strokeColor=default;align=center;verticalAlign=middle;fontFamily=Helvetica;fontSize=11;fontColor=default;labelBackgroundColor=default;startFill=0;endArrow=none;" edge="1" parent="1" source="JQyI5u36Vae-DA6VwTWV-46" target="JQyI5u36Vae-DA6VwTWV-22">
          <mxGeometry relative="1" as="geometry" />
        </mxCell>
        <mxCell id="JQyI5u36Vae-DA6VwTWV-46" value="street num" style="ellipse;whiteSpace=wrap;html=1;align=center;fontFamily=Helvetica;fontSize=11;fontColor=default;labelBackgroundColor=default;movable=1;resizable=1;rotatable=1;deletable=1;editable=1;locked=0;connectable=1;fontStyle=4" vertex="1" parent="1">
          <mxGeometry x="280" y="310" width="100" height="40" as="geometry" />
        </mxCell>
        <mxCell id="JQyI5u36Vae-DA6VwTWV-52" style="edgeStyle=orthogonalEdgeStyle;shape=connector;rounded=0;orthogonalLoop=1;jettySize=auto;html=1;entryX=1;entryY=0.75;entryDx=0;entryDy=0;strokeColor=default;align=center;verticalAlign=middle;fontFamily=Helvetica;fontSize=11;fontColor=default;labelBackgroundColor=default;startFill=0;endArrow=none;" edge="1" parent="1" source="JQyI5u36Vae-DA6VwTWV-48" target="JQyI5u36Vae-DA6VwTWV-22">
          <mxGeometry relative="1" as="geometry" />
        </mxCell>
        <mxCell id="JQyI5u36Vae-DA6VwTWV-48" value="postal code" style="ellipse;whiteSpace=wrap;html=1;align=center;fontFamily=Helvetica;fontSize=11;fontColor=default;labelBackgroundColor=default;movable=1;resizable=1;rotatable=1;deletable=1;editable=1;locked=0;connectable=1;fontStyle=4" vertex="1" parent="1">
          <mxGeometry x="180" y="360" width="100" height="40" as="geometry" />
        </mxCell>
      </root>
    </mxGraphModel>
  </diagram>
</mxfile>
